<svg width="12" height="15" viewBox="0 0 12 15" fill="none" xmlns="http://www.w3.org/2000/svg">
<path d="M6.63405 1.11968C6.57906 1.10743 6.54169 1.05634 6.54169 1C6.54169 0.447715 6.09398 0 5.54169 0C4.98941 0 4.54169 0.447715 4.54169 1C4.54169 1.05634 4.50432 1.10743 4.44933 1.11968C2.21327 1.61798 0.541692 3.61378 0.541692 6V10.4862C0.541692 10.6025 0.501144 10.7151 0.427028 10.8048L0.115617 11.1814C-0.153946 11.5074 0.0779309 12 0.500952 12H10.5166C10.9504 12 11.1784 11.4856 10.8871 11.1642L10.6712 10.926C10.5879 10.8341 10.5417 10.7144 10.5417 10.5902V6C10.5417 3.61378 8.87012 1.61798 6.63405 1.11968Z" fill="#D9D9D9"/>
<path d="M7.00881 13.1441C7.00881 13.9725 6.33724 14.6441 5.50881 14.6441C4.68038 14.6441 4.00881 13.9725 4.00881 13.1441H7.00881Z" fill="#D9D9D9"/>
</svg>
