<svg width="24" height="21" viewBox="0 0 24 21" fill="none" xmlns="http://www.w3.org/2000/svg">
<path fill-rule="evenodd" clip-rule="evenodd" d="M0.70175 0.0425105C0.522967 -0.0363226 0.314644 -0.00379086 0.168408 0.125797C0.0221724 0.255385 -0.0351793 0.458283 0.0215782 0.645249L2.99938 10.4545L0.0215782 20.2638C-0.0351793 20.4507 0.0221724 20.6536 0.168408 20.7832C0.314644 20.9128 0.522967 20.9453 0.70175 20.8665L23.2709 10.9148C23.289 10.9071 23.3066 10.8983 23.3236 10.8886C23.3782 10.8574 23.4254 10.8168 23.4637 10.7697C23.502 10.7224 23.5321 10.6678 23.5514 10.6078C23.5655 10.564 23.5737 10.5179 23.5752 10.471C23.5756 10.4592 23.5756 10.4474 23.5752 10.4357C23.5734 10.3895 23.5653 10.3443 23.5514 10.3012C23.5321 10.2413 23.5021 10.1867 23.4639 10.1396C23.4256 10.0923 23.3783 10.0516 23.3236 10.0204C23.3066 10.0107 23.2891 10.002 23.271 9.99426L0.70175 0.0425105ZM20.7022 9.95451L1.29483 1.39692L3.89266 9.95451H20.7022ZM20.7022 10.9545H3.89266L1.29483 19.5121L20.7022 10.9545Z" fill="#D9D9D9"/>
</svg>
